# xmcd
#
# Track frame offsets:
#	150
#	26337
#	47917
#	76254
#
# Disc length: 2368 seconds
#
# Revision: 0
# Processed by: cddbd v1.5.2PL0 Copyright (c) Steve Scherf et al.
# Submitted via: EasyCDDAExtractor 2010.6.0.0
#
DISCID=24093e04
DTITLE=Birdy Nam Nam - The Parachute Ending
DYEAR=2009
DGENRE=Electronic
TTITLE0=The Parachute Ending
TTITLE1=The Parachute Ending (Vitalic Remix)
TTITLE2=The Parachute Ending (Kap Bambino Maton Remix)
TTITLE3=The Parachute Ending (clip)
EXTD=
EXTT0=
EXTT1=
EXTT2=
EXTT3=
PLAYORDER=
